<svg xmlns="http://www.w3.org/2000/svg" viewBox="0 0 64 64" fill="none">
  <!-- Shield shape -->
  <path d="M32 4 L56 13 V32 C56 46 44 56 32 61 C20 56 8 46 8 32 V13 Z" fill="#0B2047"/>
  <path d="M32 8 L52 16 V32 C52 44 41 53 32 57 C23 53 12 44 12 32 V16 Z" fill="white"/>
  <path d="M32 8 L52 16 V32 C52 44 41 53 32 57 C23 53 12 44 12 32 V16 Z" fill="url(#shieldGrad)" opacity="0.08"/>
  <!-- S letter -->
  <text x="13" y="40" font-family="Arial Black, Arial" font-weight="900" font-size="22" fill="#0B2047" letter-spacing="-1">SC</text>
  <!-- Blue bar accent -->
  <rect x="19" y="44" width="26" height="3.5" rx="1.75" fill="#2563EB"/>
  <defs>
    <linearGradient id="shieldGrad" x1="0" y1="0" x2="0" y2="1">
      <stop offset="0%" stop-color="#2563EB"/>
      <stop offset="100%" stop-color="#0B2047"/>
    </linearGradient>
  </defs>
</svg>
